<svg width="412" height="402" viewBox="0 0 412 402" fill="none" xmlns="http://www.w3.org/2000/svg">
<path d="M206 0C92.2537 0 0 92.2365 0 206C0 297.018 59.019 374.233 140.887 401.477C151.17 403.382 154.5 396.996 154.5 391.572V353.221C97.1977 365.684 85.2668 328.913 85.2668 328.913C75.8938 305.103 62.3837 298.769 62.3837 298.769C43.6892 285.979 63.8085 286.254 63.8085 286.254C84.4943 287.696 95.378 307.489 95.378 307.489C113.746 338.973 143.565 329.875 155.324 324.604C157.161 311.3 162.5 302.202 168.405 297.069C122.656 291.833 74.5548 274.169 74.5548 195.254C74.5548 172.748 82.606 154.38 95.7728 139.96C93.6442 134.758 86.5887 113.798 97.7813 85.4385C97.7813 85.4385 115.085 79.9108 154.448 106.553C170.877 101.987 188.49 99.704 206 99.6182C223.51 99.704 241.14 101.987 257.603 106.553C296.932 79.9108 314.201 85.4385 314.201 85.4385C325.411 113.815 318.356 134.775 316.227 139.96C329.445 154.38 337.428 172.765 337.428 195.254C337.428 274.375 289.241 291.799 243.372 296.897C250.753 303.283 257.5 315.815 257.5 335.042V391.572C257.5 397.048 260.796 403.485 271.25 401.46C353.05 374.182 412 296.983 412 206C412 92.2365 319.763 0 206 0Z" fill="white"/>
</svg>
